<svg width="24" height="24" viewBox="0 0 24 24" fill="none" xmlns="http://www.w3.org/2000/svg">
<path d="M19.822 9.729H18.73C18.4416 9.72386 18.1664 9.60691 17.9625 9.40283C17.7586 9.19874 17.6419 8.92345 17.637 8.635C17.6369 7.89487 17.491 7.16201 17.2076 6.47827C16.9242 5.79453 16.509 5.1733 15.9855 4.65004C15.4621 4.12678 14.8407 3.71175 14.1569 3.42863C13.473 3.14552 12.7401 2.99987 12 3H8.636C7.14141 3 5.70803 3.59365 4.6511 4.65039C3.59417 5.70713 3.00027 7.14041 3 8.635V15.365C3.00027 16.8596 3.59417 18.2929 4.6511 19.3496C5.70803 20.4063 7.14141 21 8.636 21H15.365C16.8596 20.9997 18.2929 20.4058 19.3496 19.3489C20.4063 18.292 21 16.8586 21 15.364V10.906C21.0037 10.7503 20.9758 10.5955 20.9179 10.451C20.86 10.3065 20.7733 10.1752 20.6632 10.0651C20.553 9.95508 20.4217 9.86854 20.2771 9.81076C20.1325 9.75298 19.9777 9.72516 19.822 9.729ZM8.552 7.542H12.589C13.178 7.542 13.682 8.046 13.682 8.635C13.682 9.224 13.178 9.73 12.59 9.73H8.55C8.26155 9.72486 7.98637 9.60791 7.78247 9.40383C7.57857 9.19974 7.46188 8.92445 7.457 8.636C7.457 8.047 7.962 7.543 8.55 7.543M15.447 16.459H8.636C8.34738 16.4541 8.07195 16.3373 7.86783 16.1332C7.66372 15.9291 7.54689 15.6536 7.542 15.365C7.542 14.776 8.047 14.272 8.636 14.272H15.449C16.037 14.272 16.542 14.776 16.542 15.365C16.542 15.954 16.037 16.459 15.449 16.459" fill="#575858"/>
<path d="M19.822 9.729H18.73C18.4416 9.72386 18.1664 9.60691 17.9625 9.40283C17.7586 9.19874 17.6419 8.92345 17.637 8.635C17.6369 7.89487 17.491 7.16201 17.2076 6.47827C16.9242 5.79453 16.509 5.1733 15.9855 4.65004C15.4621 4.12678 14.8407 3.71175 14.1569 3.42863C13.473 3.14552 12.7401 2.99987 12 3H8.636C7.14141 3 5.70803 3.59365 4.6511 4.65039C3.59417 5.70713 3.00027 7.14041 3 8.635V15.365C3.00027 16.8596 3.59417 18.2929 4.6511 19.3496C5.70803 20.4063 7.14141 21 8.636 21H15.365C16.8596 20.9997 18.2929 20.4058 19.3496 19.3489C20.4063 18.292 21 16.8586 21 15.364V10.906C21.0037 10.7503 20.9758 10.5955 20.9179 10.451C20.86 10.3065 20.7733 10.1752 20.6632 10.0651C20.553 9.95508 20.4217 9.86854 20.2771 9.81076C20.1325 9.75298 19.9777 9.72516 19.822 9.729ZM8.552 7.542H12.589C13.178 7.542 13.682 8.046 13.682 8.635C13.682 9.224 13.178 9.73 12.59 9.73H8.55C8.26155 9.72486 7.98637 9.60791 7.78247 9.40383C7.57857 9.19974 7.46188 8.92445 7.457 8.636C7.457 8.047 7.962 7.543 8.55 7.543M15.447 16.459H8.636C8.34738 16.4541 8.07195 16.3373 7.86783 16.1332C7.66372 15.9291 7.54689 15.6536 7.542 15.365C7.542 14.776 8.047 14.272 8.636 14.272H15.449C16.037 14.272 16.542 14.776 16.542 15.365C16.542 15.954 16.037 16.459 15.449 16.459" fill="black" fill-opacity="0.2"/>
<path d="M19.822 9.729H18.73C18.4416 9.72386 18.1664 9.60691 17.9625 9.40283C17.7586 9.19874 17.6419 8.92345 17.637 8.635C17.6369 7.89487 17.491 7.16201 17.2076 6.47827C16.9242 5.79453 16.509 5.1733 15.9855 4.65004C15.4621 4.12678 14.8407 3.71175 14.1569 3.42863C13.473 3.14552 12.7401 2.99987 12 3H8.636C7.14141 3 5.70803 3.59365 4.6511 4.65039C3.59417 5.70713 3.00027 7.14041 3 8.635V15.365C3.00027 16.8596 3.59417 18.2929 4.6511 19.3496C5.70803 20.4063 7.14141 21 8.636 21H15.365C16.8596 20.9997 18.2929 20.4058 19.3496 19.3489C20.4063 18.292 21 16.8586 21 15.364V10.906C21.0037 10.7503 20.9758 10.5955 20.9179 10.451C20.86 10.3065 20.7733 10.1752 20.6632 10.0651C20.553 9.95508 20.4217 9.86854 20.2771 9.81076C20.1325 9.75298 19.9777 9.72516 19.822 9.729ZM8.552 7.542H12.589C13.178 7.542 13.682 8.046 13.682 8.635C13.682 9.224 13.178 9.73 12.59 9.73H8.55C8.26155 9.72486 7.98637 9.60791 7.78247 9.40383C7.57857 9.19974 7.46188 8.92445 7.457 8.636C7.457 8.047 7.962 7.543 8.55 7.543M15.447 16.459H8.636C8.34738 16.4541 8.07195 16.3373 7.86783 16.1332C7.66372 15.9291 7.54689 15.6536 7.542 15.365C7.542 14.776 8.047 14.272 8.636 14.272H15.449C16.037 14.272 16.542 14.776 16.542 15.365C16.542 15.954 16.037 16.459 15.449 16.459" fill="black" fill-opacity="0.2"/>
<path d="M19.822 9.729H18.73C18.4416 9.72386 18.1664 9.60691 17.9625 9.40283C17.7586 9.19874 17.6419 8.92345 17.637 8.635C17.6369 7.89487 17.491 7.16201 17.2076 6.47827C16.9242 5.79453 16.509 5.1733 15.9855 4.65004C15.4621 4.12678 14.8407 3.71175 14.1569 3.42863C13.473 3.14552 12.7401 2.99987 12 3H8.636C7.14141 3 5.70803 3.59365 4.6511 4.65039C3.59417 5.70713 3.00027 7.14041 3 8.635V15.365C3.00027 16.8596 3.59417 18.2929 4.6511 19.3496C5.70803 20.4063 7.14141 21 8.636 21H15.365C16.8596 20.9997 18.2929 20.4058 19.3496 19.3489C20.4063 18.292 21 16.8586 21 15.364V10.906C21.0037 10.7503 20.9758 10.5955 20.9179 10.451C20.86 10.3065 20.7733 10.1752 20.6632 10.0651C20.553 9.95508 20.4217 9.86854 20.2771 9.81076C20.1325 9.75298 19.9777 9.72516 19.822 9.729ZM8.552 7.542H12.589C13.178 7.542 13.682 8.046 13.682 8.635C13.682 9.224 13.178 9.73 12.59 9.73H8.55C8.26155 9.72486 7.98637 9.60791 7.78247 9.40383C7.57857 9.19974 7.46188 8.92445 7.457 8.636C7.457 8.047 7.962 7.543 8.55 7.543M15.447 16.459H8.636C8.34738 16.4541 8.07195 16.3373 7.86783 16.1332C7.66372 15.9291 7.54689 15.6536 7.542 15.365C7.542 14.776 8.047 14.272 8.636 14.272H15.449C16.037 14.272 16.542 14.776 16.542 15.365C16.542 15.954 16.037 16.459 15.449 16.459" fill="black" fill-opacity="0.2"/>
<path d="M19.822 9.729H18.73C18.4416 9.72386 18.1664 9.60691 17.9625 9.40283C17.7586 9.19874 17.6419 8.92345 17.637 8.635C17.6369 7.89487 17.491 7.16201 17.2076 6.47827C16.9242 5.79453 16.509 5.1733 15.9855 4.65004C15.4621 4.12678 14.8407 3.71175 14.1569 3.42863C13.473 3.14552 12.7401 2.99987 12 3H8.636C7.14141 3 5.70803 3.59365 4.6511 4.65039C3.59417 5.70713 3.00027 7.14041 3 8.635V15.365C3.00027 16.8596 3.59417 18.2929 4.6511 19.3496C5.70803 20.4063 7.14141 21 8.636 21H15.365C16.8596 20.9997 18.2929 20.4058 19.3496 19.3489C20.4063 18.292 21 16.8586 21 15.364V10.906C21.0037 10.7503 20.9758 10.5955 20.9179 10.451C20.86 10.3065 20.7733 10.1752 20.6632 10.0651C20.553 9.95508 20.4217 9.86854 20.2771 9.81076C20.1325 9.75298 19.9777 9.72516 19.822 9.729ZM8.552 7.542H12.589C13.178 7.542 13.682 8.046 13.682 8.635C13.682 9.224 13.178 9.73 12.59 9.73H8.55C8.26155 9.72486 7.98637 9.60791 7.78247 9.40383C7.57857 9.19974 7.46188 8.92445 7.457 8.636C7.457 8.047 7.962 7.543 8.55 7.543M15.447 16.459H8.636C8.34738 16.4541 8.07195 16.3373 7.86783 16.1332C7.66372 15.9291 7.54689 15.6536 7.542 15.365C7.542 14.776 8.047 14.272 8.636 14.272H15.449C16.037 14.272 16.542 14.776 16.542 15.365C16.542 15.954 16.037 16.459 15.449 16.459" fill="black" fill-opacity="0.2"/>
<path d="M19.822 9.729H18.73C18.4416 9.72386 18.1664 9.60691 17.9625 9.40283C17.7586 9.19874 17.6419 8.92345 17.637 8.635C17.6369 7.89487 17.491 7.16201 17.2076 6.47827C16.9242 5.79453 16.509 5.1733 15.9855 4.65004C15.4621 4.12678 14.8407 3.71175 14.1569 3.42863C13.473 3.14552 12.7401 2.99987 12 3H8.636C7.14141 3 5.70803 3.59365 4.6511 4.65039C3.59417 5.70713 3.00027 7.14041 3 8.635V15.365C3.00027 16.8596 3.59417 18.2929 4.6511 19.3496C5.70803 20.4063 7.14141 21 8.636 21H15.365C16.8596 20.9997 18.2929 20.4058 19.3496 19.3489C20.4063 18.292 21 16.8586 21 15.364V10.906C21.0037 10.7503 20.9758 10.5955 20.9179 10.451C20.86 10.3065 20.7733 10.1752 20.6632 10.0651C20.553 9.95508 20.4217 9.86854 20.2771 9.81076C20.1325 9.75298 19.9777 9.72516 19.822 9.729ZM8.552 7.542H12.589C13.178 7.542 13.682 8.046 13.682 8.635C13.682 9.224 13.178 9.73 12.59 9.73H8.55C8.26155 9.72486 7.98637 9.60791 7.78247 9.40383C7.57857 9.19974 7.46188 8.92445 7.457 8.636C7.457 8.047 7.962 7.543 8.55 7.543M15.447 16.459H8.636C8.34738 16.4541 8.07195 16.3373 7.86783 16.1332C7.66372 15.9291 7.54689 15.6536 7.542 15.365C7.542 14.776 8.047 14.272 8.636 14.272H15.449C16.037 14.272 16.542 14.776 16.542 15.365C16.542 15.954 16.037 16.459 15.449 16.459" fill="black" fill-opacity="0.2"/>
<path d="M19.822 9.729H18.73C18.4416 9.72386 18.1664 9.60691 17.9625 9.40283C17.7586 9.19874 17.6419 8.92345 17.637 8.635C17.6369 7.89487 17.491 7.16201 17.2076 6.47827C16.9242 5.79453 16.509 5.1733 15.9855 4.65004C15.4621 4.12678 14.8407 3.71175 14.1569 3.42863C13.473 3.14552 12.7401 2.99987 12 3H8.636C7.14141 3 5.70803 3.59365 4.6511 4.65039C3.59417 5.70713 3.00027 7.14041 3 8.635V15.365C3.00027 16.8596 3.59417 18.2929 4.6511 19.3496C5.70803 20.4063 7.14141 21 8.636 21H15.365C16.8596 20.9997 18.2929 20.4058 19.3496 19.3489C20.4063 18.292 21 16.8586 21 15.364V10.906C21.0037 10.7503 20.9758 10.5955 20.9179 10.451C20.86 10.3065 20.7733 10.1752 20.6632 10.0651C20.553 9.95508 20.4217 9.86854 20.2771 9.81076C20.1325 9.75298 19.9777 9.72516 19.822 9.729ZM8.552 7.542H12.589C13.178 7.542 13.682 8.046 13.682 8.635C13.682 9.224 13.178 9.73 12.59 9.73H8.55C8.26155 9.72486 7.98637 9.60791 7.78247 9.40383C7.57857 9.19974 7.46188 8.92445 7.457 8.636C7.457 8.047 7.962 7.543 8.55 7.543M15.447 16.459H8.636C8.34738 16.4541 8.07195 16.3373 7.86783 16.1332C7.66372 15.9291 7.54689 15.6536 7.542 15.365C7.542 14.776 8.047 14.272 8.636 14.272H15.449C16.037 14.272 16.542 14.776 16.542 15.365C16.542 15.954 16.037 16.459 15.449 16.459" fill="black" fill-opacity="0.2"/>
<path d="M19.822 9.729H18.73C18.4416 9.72386 18.1664 9.60691 17.9625 9.40283C17.7586 9.19874 17.6419 8.92345 17.637 8.635C17.6369 7.89487 17.491 7.16201 17.2076 6.47827C16.9242 5.79453 16.509 5.1733 15.9855 4.65004C15.4621 4.12678 14.8407 3.71175 14.1569 3.42863C13.473 3.14552 12.7401 2.99987 12 3H8.636C7.14141 3 5.70803 3.59365 4.6511 4.65039C3.59417 5.70713 3.00027 7.14041 3 8.635V15.365C3.00027 16.8596 3.59417 18.2929 4.6511 19.3496C5.70803 20.4063 7.14141 21 8.636 21H15.365C16.8596 20.9997 18.2929 20.4058 19.3496 19.3489C20.4063 18.292 21 16.8586 21 15.364V10.906C21.0037 10.7503 20.9758 10.5955 20.9179 10.451C20.86 10.3065 20.7733 10.1752 20.6632 10.0651C20.553 9.95508 20.4217 9.86854 20.2771 9.81076C20.1325 9.75298 19.9777 9.72516 19.822 9.729ZM8.552 7.542H12.589C13.178 7.542 13.682 8.046 13.682 8.635C13.682 9.224 13.178 9.73 12.59 9.73H8.55C8.26155 9.72486 7.98637 9.60791 7.78247 9.40383C7.57857 9.19974 7.46188 8.92445 7.457 8.636C7.457 8.047 7.962 7.543 8.55 7.543M15.447 16.459H8.636C8.34738 16.4541 8.07195 16.3373 7.86783 16.1332C7.66372 15.9291 7.54689 15.6536 7.542 15.365C7.542 14.776 8.047 14.272 8.636 14.272H15.449C16.037 14.272 16.542 14.776 16.542 15.365C16.542 15.954 16.037 16.459 15.449 16.459" fill="black" fill-opacity="0.2"/>
<path d="M19.822 9.729H18.73C18.4416 9.72386 18.1664 9.60691 17.9625 9.40283C17.7586 9.19874 17.6419 8.92345 17.637 8.635C17.6369 7.89487 17.491 7.16201 17.2076 6.47827C16.9242 5.79453 16.509 5.1733 15.9855 4.65004C15.4621 4.12678 14.8407 3.71175 14.1569 3.42863C13.473 3.14552 12.7401 2.99987 12 3H8.636C7.14141 3 5.70803 3.59365 4.6511 4.65039C3.59417 5.70713 3.00027 7.14041 3 8.635V15.365C3.00027 16.8596 3.59417 18.2929 4.6511 19.3496C5.70803 20.4063 7.14141 21 8.636 21H15.365C16.8596 20.9997 18.2929 20.4058 19.3496 19.3489C20.4063 18.292 21 16.8586 21 15.364V10.906C21.0037 10.7503 20.9758 10.5955 20.9179 10.451C20.86 10.3065 20.7733 10.1752 20.6632 10.0651C20.553 9.95508 20.4217 9.86854 20.2771 9.81076C20.1325 9.75298 19.9777 9.72516 19.822 9.729ZM8.552 7.542H12.589C13.178 7.542 13.682 8.046 13.682 8.635C13.682 9.224 13.178 9.73 12.59 9.73H8.55C8.26155 9.72486 7.98637 9.60791 7.78247 9.40383C7.57857 9.19974 7.46188 8.92445 7.457 8.636C7.457 8.047 7.962 7.543 8.55 7.543M15.447 16.459H8.636C8.34738 16.4541 8.07195 16.3373 7.86783 16.1332C7.66372 15.9291 7.54689 15.6536 7.542 15.365C7.542 14.776 8.047 14.272 8.636 14.272H15.449C16.037 14.272 16.542 14.776 16.542 15.365C16.542 15.954 16.037 16.459 15.449 16.459" fill="black" fill-opacity="0.2"/>
</svg>
