<svg width="105" height="105" viewBox="0 0 105 105" fill="none" xmlns="http://www.w3.org/2000/svg">
<g clip-path="url(#clip0_1465_23810)">
<path d="M72.187 -0.000467703C66.9837 -0.0583535 61.8387 1.0978 57.1604 3.37617C52.4822 5.65454 48.3996 8.99236 45.237 13.1245C44.8408 13.5791 44.5428 14.1107 44.3618 14.686C44.1809 15.2612 44.1207 15.8676 44.1853 16.4672C44.2498 17.0668 44.4376 17.6465 44.7368 18.1701C45.0361 18.6936 45.4403 19.1496 45.9242 19.5095C46.4081 19.8694 46.9611 20.1254 47.5486 20.2613C48.1361 20.3973 48.7454 20.4104 49.3382 20.2997C49.931 20.189 50.4945 19.957 50.9933 19.6181C51.4922 19.2793 51.9156 18.841 52.237 18.3308C54.5937 15.2984 57.6223 12.8547 61.0842 11.192C64.5462 9.52937 68.3469 8.69325 72.187 8.74953C78.2745 8.4759 84.2227 10.6233 88.7316 14.7223C93.2406 18.8213 95.9434 24.5386 96.2495 30.6245C96.1479 35.0841 94.6854 39.4061 92.058 43.011C89.4306 46.6159 85.7639 49.3313 81.5495 50.7933C81.0349 50.9803 80.56 51.2623 80.1495 51.6245C79.2745 52.4558 71.0932 59.412 69.9995 60.3745V56.6558C70.0099 55.5942 69.634 54.565 68.9418 53.7601C68.2495 52.9551 67.2882 52.4294 66.237 52.2808C65.0667 52.1265 63.9109 51.8778 62.7807 51.537C62.2263 51.379 61.6462 51.3318 61.0735 51.398C60.5008 51.4642 59.9468 51.6425 59.443 51.9229C58.9393 52.2032 58.4957 52.58 58.1375 53.0317C57.7794 53.4835 57.5137 54.0014 57.3557 54.5558C57.1977 55.1102 57.1505 55.6903 57.2167 56.263C57.2829 56.8357 57.4612 57.3897 57.7415 57.8935C58.0219 58.3972 58.3987 58.8409 58.8504 59.199C59.3022 59.5571 59.8201 59.8228 60.3745 59.9808L61.2495 60.1995V69.9995C61.2538 70.8633 61.5137 71.7064 61.9964 72.4227C62.4791 73.139 63.163 73.6963 63.962 74.0245C64.7587 74.3596 65.6368 74.4511 66.4855 74.2876C67.3342 74.1241 68.1155 73.7128 68.7307 73.1058C69.8682 71.9245 84.2182 59.7183 85.4432 58.6245C91.115 56.4271 96.004 52.5905 99.4869 47.6038C102.97 42.6171 104.889 36.7061 104.999 30.6245C104.691 22.2184 101.066 14.2766 94.9165 8.53705C88.7671 2.79754 80.5944 -0.272231 72.187 -0.000467703Z" fill="#2A87D7"/>
<path d="M53.025 28.4375C53.025 29.5978 53.4859 30.7106 54.3064 31.5311C55.1269 32.3516 56.2397 32.8125 57.4 32.8125C58.5603 32.8125 59.6731 32.3516 60.4936 31.5311C61.3141 30.7106 61.775 29.5978 61.775 28.4375C61.775 27.2772 61.3141 26.1644 60.4936 25.3439C59.6731 24.5234 58.5603 24.0625 57.4 24.0625C56.2397 24.0625 55.1269 24.5234 54.3064 25.3439C53.4859 26.1644 53.025 27.2772 53.025 28.4375ZM67.2438 28.4375C67.2438 29.012 67.3569 29.5809 67.5768 30.1117C67.7966 30.6425 68.1189 31.1248 68.5252 31.5311C68.9314 31.9373 69.4137 32.2596 69.9445 32.4795C70.4753 32.6993 71.0442 32.8125 71.6188 32.8125C72.1933 32.8125 72.7622 32.6993 73.293 32.4795C73.8238 32.2596 74.3061 31.9373 74.7123 31.5311C75.1186 31.1248 75.4409 30.6425 75.6607 30.1117C75.8806 29.5809 75.9938 29.012 75.9938 28.4375C75.9938 27.2772 75.5328 26.1644 74.7123 25.3439C73.8919 24.5234 72.7791 24.0625 71.6188 24.0625C70.4584 24.0625 69.3456 24.5234 68.5252 25.3439C67.7047 26.1644 67.2438 27.2772 67.2438 28.4375ZM81.4625 28.4375C81.4625 29.5978 81.9234 30.7106 82.7439 31.5311C83.5644 32.3516 84.6772 32.8125 85.8375 32.8125C86.9978 32.8125 88.1106 32.3516 88.9311 31.5311C89.7516 30.7106 90.2125 29.5978 90.2125 28.4375C90.2125 27.2772 89.7516 26.1644 88.9311 25.3439C88.1106 24.5234 86.9978 24.0625 85.8375 24.0625C84.6772 24.0625 83.5644 24.5234 82.7439 25.3439C81.9234 26.1644 81.4625 27.2772 81.4625 28.4375ZM32.8125 70C24.1101 70 15.7641 73.457 9.61056 79.6106C3.45702 85.7641 0 94.1101 0 102.812C0 103.393 0.230468 103.949 0.640704 104.359C1.05094 104.77 1.60734 105 2.1875 105H63.4375C64.0177 105 64.5741 104.77 64.9843 104.359C65.3945 103.949 65.625 103.393 65.625 102.812C65.625 94.1101 62.168 85.7641 56.0144 79.6106C49.8609 73.457 41.5149 70 32.8125 70ZM12.0312 47.0312C12.0312 52.5428 14.2207 57.8286 18.1179 61.7258C22.0152 65.6231 27.301 67.8125 32.8125 67.8125C38.324 67.8125 43.6098 65.6231 47.5071 61.7258C51.4043 57.8286 53.5938 52.5428 53.5938 47.0312C53.5938 41.5197 51.4043 36.2339 47.5071 32.3367C43.6098 28.4394 38.324 26.25 32.8125 26.25C27.301 26.25 22.0152 28.4394 18.1179 32.3367C14.2207 36.2339 12.0312 41.5197 12.0312 47.0312Z" fill="#2A87D7"/>
</g>
<defs>
<clipPath id="clip0_1465_23810">
<rect width="105" height="105" fill="white"/>
</clipPath>
</defs>
</svg>
