<svg width="18" height="18" viewBox="0 0 18 18" fill="none" xmlns="http://www.w3.org/2000/svg">
<path fill-rule="evenodd" clip-rule="evenodd" d="M5 13V18H13V13H18V5H13V0H5V5H0V13H5ZM10.25 5.2515H8.935C8.88846 5.24866 8.84189 5.2567 8.799 5.275C8.3815 5.4785 8.1195 5.838 7.959 6.264C7.929 6.34267 7.903 6.42183 7.881 6.5015H6.852C6.893 6.308 6.9485 6.108 7.0235 5.9105C7.2445 5.325 7.648 4.724 8.3605 4.376C8.54009 4.29093 8.7368 4.24817 8.9355 4.251H10.2505C10.3831 4.251 10.5103 4.30368 10.6041 4.39745C10.6978 4.49121 10.7505 4.61839 10.7505 4.751C10.7505 4.88361 10.6978 5.01079 10.6041 5.10455C10.5103 5.19832 10.3831 5.251 10.2505 5.251M6.0005 7.001C5.7245 7.001 5.494 7.229 5.569 7.495C5.8575 8.5245 7.032 9.3255 8.5005 9.4755V10.2545C8.153 10.263 7.792 10.291 7.4855 10.38C7.2465 10.45 6.993 10.569 6.799 10.787C6.596 11.015 6.5005 11.303 6.5005 11.6245C6.5005 11.946 6.5955 12.2345 6.7985 12.463C6.9925 12.6815 7.246 12.8015 7.4855 12.8715C7.6455 12.918 7.8205 12.948 8.0005 12.967V11.9605C7.92111 11.9497 7.84258 11.9334 7.7655 11.9115C7.6305 11.8715 7.571 11.8275 7.5465 11.7995C7.5305 11.7815 7.5005 11.741 7.5005 11.6245C7.5005 11.5095 7.5305 11.4695 7.5455 11.452C7.5705 11.424 7.6295 11.3795 7.7655 11.34C7.957 11.2845 8.204 11.2635 8.5005 11.2555V14.001H7.0005V15.001H11.0005V14.001H9.5005V11.2325C10.0515 11.1895 10.498 11.0685 10.834 10.852C11.3065 10.547 11.5005 10.0935 11.5005 9.612C11.5045 9.35485 11.4407 9.10118 11.3155 8.8765C11.8775 8.5215 12.279 8.0405 12.432 7.495C12.507 7.229 12.277 7.001 12.0005 7.001H6.0005ZM9.5005 10.2285C9.905 10.1895 10.1505 10.1025 10.292 10.0115C10.4445 9.913 10.5005 9.7975 10.5005 9.612C10.5005 9.4715 10.4685 9.376 10.386 9.297C10.0977 9.38602 9.80124 9.44582 9.501 9.4755L9.5005 10.2285Z" fill="#575858"/>
</svg>
